# xmcd
#
# Track frame offsets: 
#        150
#        20157
#        33467
#        50314
#        66114
#        83278
#        101147
#        115715
#        137367
#        151806
#        168817
#
# Disc length: 2543 seconds
#
# Revision: 4
# Processed by: cddbd v1.5.2PL0 Copyright (c) Steve Scherf et al.
# Submitted via: ExactAudioCopy v1.3
#
DISCID=7b09ed0b
DTITLE=Hank Williams Jr. - I'm One Of You
DYEAR=2003
DGENRE=Country
TTITLE0=Amos Moses
TTITLE1=Liquor To Like Her
TTITLE2=Just Enough To Get In Trouble
TTITLE3=I'm One Of You
TTITLE4=What's On The Bar
TTITLE5=Games People Play
TTITLE6=Waylon's Guitar
TTITLE7=Why Can't We All Just Get Along - Neck? - Jambalaya
TTITLE8=American Offline
TTITLE9=Guitar Money
TTITLE10=Devil In The Bottle
EXTD=YEAR: 2003
EXTT0=
EXTT1=
EXTT2=
EXTT3=
EXTT4=
EXTT5=
EXTT6=
EXTT7=
EXTT8=
EXTT9=
EXTT10=
PLAYORDER=
